<svg width="20" height="20" viewBox="0 0 20 20" fill="none" xmlns="http://www.w3.org/2000/svg">
<path d="M14.586 6.21601C14.344 5.95201 13.993 5.81201 13.544 5.79901C12.277 5.75701 11.38 6.43901 10.88 7.82301C10.8672 7.85851 10.8643 7.89685 10.8717 7.93386C10.8791 7.97088 10.8965 8.00516 10.922 8.03301C10.9468 8.061 10.979 8.08146 11.0149 8.09207C11.0508 8.10267 11.0889 8.103 11.125 8.09301C11.268 8.05301 11.411 8.03301 11.549 8.03301C11.734 8.03301 11.979 8.06701 12.102 8.23001C12.196 8.35601 12.209 8.54401 12.14 8.79001C12.082 8.99701 11.783 9.55101 11.414 10.138C10.964 10.853 10.714 11.173 10.644 11.173C10.406 11.173 9.54697 7.32801 9.52397 7.24301C9.27697 6.36301 9.15397 5.92001 8.35397 5.92001C7.74297 5.92001 6.38197 7.04601 5.26397 8.02701L5.09397 8.17701C5.04198 8.22198 5.0091 8.2851 5.00204 8.35348C4.99498 8.42186 5.01427 8.49036 5.05597 8.54501L5.26397 8.81601C5.30556 8.87105 5.36705 8.90762 5.43526 8.9179C5.50348 8.92818 5.57301 8.91135 5.62897 8.87101L5.63997 8.86201C6.00197 8.60201 6.34297 8.35701 6.60097 8.34401C6.88097 8.33001 7.12397 8.77201 7.41397 9.82401C7.96597 11.868 8.80397 14.304 9.66497 14.304C10.565 14.304 11.638 13.534 13.025 11.71C14.28 10.06 14.952 8.75101 14.995 7.79901C15.028 7.07901 14.89 6.54701 14.586 6.21601V6.21601Z" fill="#FFF4D3"/>
<path d="M4 2C3.46957 2 2.96086 2.21071 2.58579 2.58579C2.21071 2.96086 2 3.46957 2 4V16C2 16.5304 2.21071 17.0391 2.58579 17.4142C2.96086 17.7893 3.46957 18 4 18H16C16.5304 18 17.0391 17.7893 17.4142 17.4142C17.7893 17.0391 18 16.5304 18 16V4C18 3.46957 17.7893 2.96086 17.4142 2.58579C17.0391 2.21071 16.5304 2 16 2H4ZM4 0H16C17.0609 0 18.0783 0.421427 18.8284 1.17157C19.5786 1.92172 20 2.93913 20 4V16C20 17.0609 19.5786 18.0783 18.8284 18.8284C18.0783 19.5786 17.0609 20 16 20H4C2.93913 20 1.92172 19.5786 1.17157 18.8284C0.421427 18.0783 0 17.0609 0 16V4C0 2.93913 0.421427 1.92172 1.17157 1.17157C1.92172 0.421427 2.93913 0 4 0V0Z" fill="#FFF4D3"/>
</svg>
